<?xml version="1.0"?>
<svg width="16" height="16" xmlns="http://www.w3.org/2000/svg" xmlns:svg="http://www.w3.org/2000/svg" class="bi bi-tsunami">
 <g class="layer">
  <title>Layer 1</title>
  <path d="m0.04,12.31a0.5,0.5 0 0 1 0.65,-0.27l1.75,0.7a1.5,1.5 0 0 0 1.12,0l1.01,-0.41a2.5,2.5 0 0 1 1.86,0l1.01,0.41a1.5,1.5 0 0 0 1.12,0l1.01,-0.41a2.5,2.5 0 0 1 1.86,0l1.01,0.41a1.5,1.5 0 0 0 1.12,0l1.75,-0.7a0.5,0.5 0 1 1 0.38,0.92l-1.76,0.71a2.5,2.5 0 0 1 -1.86,0l-1.01,-0.41a1.5,1.5 0 0 0 -1.12,0l-1.01,0.41a2.5,2.5 0 0 1 -1.86,0l-1.01,-0.41a1.5,1.5 0 0 0 -1.12,0l-1.01,0.41a2.5,2.5 0 0 1 -1.86,0l-1.76,-0.71a0.5,0.5 0 0 1 -0.27,-0.65m0,2a0.5,0.5 0 0 1 0.65,-0.27l1.75,0.7a1.5,1.5 0 0 0 1.12,0l1.01,-0.41a2.5,2.5 0 0 1 1.86,0l1.01,0.41a1.5,1.5 0 0 0 1.12,0l1.01,-0.41a2.5,2.5 0 0 1 1.86,0l1.01,0.41a1.5,1.5 0 0 0 1.12,0l1.75,-0.7a0.5,0.5 0 1 1 0.38,0.92l-1.76,0.71a2.5,2.5 0 0 1 -1.86,0l-1.01,-0.41a1.5,1.5 0 0 0 -1.12,0l-1.01,0.41a2.5,2.5 0 0 1 -1.86,0l-1.01,-0.41a1.5,1.5 0 0 0 -1.12,0l-1.01,0.41a2.5,2.5 0 0 1 -1.86,0l-1.76,-0.71a0.5,0.5 0 0 1 -0.27,-0.65m2.62,-6.23c-0.45,1.06 -0.99,2.1 -1.84,2.8a0.5,0.5 0 0 1 -0.64,-0.76c0.65,-0.55 1.11,-1.39 1.56,-2.43c0.14,-0.33 0.28,-0.68 0.43,-1.05c0.3,-0.75 0.62,-1.56 1.01,-2.31c0.58,-1.13 1.35,-2.23 2.52,-3.03c1.18,-0.81 2.72,-1.3 4.8,-1.3c1.46,0 2.51,0.4 3.18,1.06c0.67,0.66 0.89,1.52 0.82,2.3c-0.08,0.77 -0.44,1.52 -1.02,1.97a1.88,1.88 0 0 1 -1.91,0.27c-0.65,0.64 -0.9,1.67 -0.71,2.61c0.22,1 0.92,1.79 2.14,1.79l2.5,0a0.5,0.5 0 0 1 0,1l-2.5,0c-1.78,0 -2.83,-1.21 -3.11,-2.59c-0.24,-1.1 0,-2.37 0.75,-3.28l-0.14,-0.07l-0.78,0.39a0.5,0.5 0 0 1 -0.44,0l-1,-0.5a0.5,0.5 0 0 1 0.44,-0.9l0.78,0.39l0.78,-0.39a0.5,0.5 0 0 1 0.44,0l1,0.5l0.04,0.02c0.44,0.27 0.81,0.2 1.11,-0.03c0.32,-0.26 0.58,-0.73 0.63,-1.27c0.05,-0.53 -0.1,-1.08 -0.52,-1.5s-1.19,-0.77 -2.48,-0.77c-1.92,0 -3.25,0.45 -4.23,1.12c-0.99,0.68 -1.66,1.62 -2.2,2.67c-0.36,0.71 -0.65,1.43 -0.94,2.16c-0.15,0.38 -0.31,0.75 -0.47,1.13" fill="#ffffff" id="svg_1"/>
 </g>
</svg>